# xmcd CD database file
#
# Track frame offsets:
#	150
#	13315
#	25305
#	38882
#	53707
#	61985
#	70240
#	82795
#	99200
#	117060
#	131047
#	168220
#	178960
#	190727
#	202430
#	218940
#	230817
#	239337
#	252220
#	261472
#	279855
#	288947
#	299472
#	327032
#	333035
#
# Disc length: 4559 seconds
#
# Revision: 6
# Processed by: cddbd v1.5.2PL0 Copyright (c) Steve Scherf et al.
# Submitted via: CDex 1.70beta2
#
DISCID=7511cd19
DTITLE=Brian Wilson - Brian Wilson
DYEAR=1988
DGENRE=Pop
TTITLE0=Love And Mercy
TTITLE1=Walkin' The Line
TTITLE2=Melt Away
TTITLE3=Baby Let Your Hair Grow Long
TTITLE4=Little Children
TTITLE5=One For The Boys
TTITLE6=There's So Many
TTITLE7=Night Time
TTITLE8=Let It Shine
TTITLE9=Meet Me In My Dreams Tonight
TTITLE10=Rio Grande
TTITLE11=Brian On "Love And Mercy"
TTITLE12=He Couldn't Get His Poor Old Body To Move
TTITLE13=Being With The One You Love
TTITLE14=Let's Go To Heaven In My Car
TTITLE15=Too Much Sugar
TTITLE16=There's So Many [Demo]
TTITLE17=Walkin' The Line [Demo]
TTITLE18=Melt Away [Early Version - Alternate Vocal]
TTITLE19=Night Time [Instrumental Track]
TTITLE20=Little Children [Demo]
TTITLE21=Night Bloomin' Jasmine [Demo]
TTITLE22=Rio Grande [Early Version - Compiled Rough Mixes]
TTITLE23=Brian On "Rio Grande"
TTITLE24=Brian On "The Source"
EXTD=YEAR: 1988
EXTT0=
EXTT1=
EXTT2=
EXTT3=
EXTT4=
EXTT5=
EXTT6=
EXTT7=
EXTT8=
EXTT9=
EXTT10=
EXTT11=
EXTT12=
EXTT13=
EXTT14=
EXTT15=
EXTT16=
EXTT17=
EXTT18=
EXTT19=
EXTT20=
EXTT21=
EXTT22=
EXTT23=
EXTT24=
PLAYORDER=
